<?xml version="1.0" encoding="UTF-8" standalone="no"?>
<svg
   xmlns:dc="http://purl.org/dc/elements/1.1/"
   xmlns:cc="http://creativecommons.org/ns#"
   xmlns:rdf="http://www.w3.org/1999/02/22-rdf-syntax-ns#"
   xmlns:svg="http://www.w3.org/2000/svg"
   xmlns="http://www.w3.org/2000/svg"
   xmlns:sodipodi="http://sodipodi.sourceforge.net/DTD/sodipodi-0.dtd"
   xmlns:inkscape="http://www.inkscape.org/namespaces/inkscape"
   version="1.1"
   width="20"
   height="20"
   viewBox="0 0 20 20"
   id="svg4"
   sodipodi:docname="leaderboard.svg"
   inkscape:version="0.92.1 r15371">
  <metadata
     id="metadata10">
    <rdf:RDF>
      <cc:Work
         rdf:about="">
        <dc:format>image/svg+xml</dc:format>
        <dc:type
           rdf:resource="http://purl.org/dc/dcmitype/StillImage" />
      </cc:Work>
    </rdf:RDF>
  </metadata>
  <defs
     id="defs8" />
  <sodipodi:namedview
     pagecolor="#ffffff"
     bordercolor="#666666"
     borderopacity="1"
     objecttolerance="10"
     gridtolerance="10"
     guidetolerance="10"
     inkscape:pageopacity="0"
     inkscape:pageshadow="2"
     inkscape:window-width="1920"
     inkscape:window-height="1017"
     id="namedview6"
     showgrid="false"
     showguides="true"
     inkscape:guide-bbox="true"
     inkscape:zoom="32"
     inkscape:cx="7.1025418"
     inkscape:cy="9.8360298"
     inkscape:window-x="-8"
     inkscape:window-y="-8"
     inkscape:window-maximized="1"
     inkscape:current-layer="svg4">
    <sodipodi:guide
       position="4.065864,12.948893"
       orientation="1,0"
       id="guide944"
       inkscape:locked="false" />
    <sodipodi:guide
       position="10.032077,18.694136"
       orientation="1,0"
       id="guide946"
       inkscape:locked="false" />
    <sodipodi:guide
       position="15.954097,9.6343299"
       orientation="1,0"
       id="guide948"
       inkscape:locked="false" />
    <sodipodi:guide
       position="1,13"
       orientation="0,1"
       id="guide4492"
       inkscape:locked="false" />
  </sodipodi:namedview>
  <path
     style="fill-opacity:1;stroke-width:1.2247448"
     d="M 7 2 L 7 7 L 1 7 L 1 18 L 7 18 L 7.0996094 18 L 13 18 L 19 18 L 19 10 L 13 10 L 13 2 L 7 2 z "
     id="path2-1" />
  <g
     id="g863"
     transform="translate(9.4878693,0.55410639)"
     style="fill:#ffffff;fill-opacity:1">
    <path
       id="path837"
       d="m -5.8879193,8.0908943 a 1.04844,1.04844 0 0 1 0.45,-0.1 0.5074,0.5074 0 0 1 0.35,0.11 0.45478,0.45478 0 0 1 0.13,0.36 0.80281,0.80281 0 0 1 -0.06,0.3 1.44773,1.44773 0 0 1 -0.19,0.33 c -0.09,0.11 -0.29,0.32 -0.58,0.6199995 l -0.99,1.0000002 v 0.58 h 2.7599999 v -0.7 h -1.7199999 v -0.04 l 0.51,-0.48 a 7.276,7.276 0 0 0 0.6999999,-0.7099997 1.75082,1.75082 0 0 0 0.3,-0.49005 1.25433,1.25433 0 0 0 0.1,-0.50995 0.968,0.968 0 0 0 -0.16,-0.56 1.00745,1.00745 0 0 0 -0.44,-0.37 1.5123,1.5123 0 0 0 -0.6499999,-0.14 1.9806,1.9806 0 0 0 -0.50995,0.06 1.90064,1.90064 0 0 0 -0.42,0.15 3.67134,3.67134 0 0 0 -0.48,0.35 l 0.45,0.54 a 2.50521,2.50521 0 0 1 0.44995,-0.3 z"
       inkscape:connector-curvature="0"
       style="fill:#ffffff;fill-opacity:1" />
    <path
       id="path839"
       d="m 7.5820707,12.563444 a 1.29033,1.29033 0 0 0 -0.74,-0.3 v -0.02 a 1.20318,1.20318 0 0 0 0.65,-0.37 0.9734,0.9734 0 0 0 0.23,-0.65 0.81112,0.81112 0 0 0 -0.37,-0.71 1.72094,1.72094 0 0 0 -1,-0.26 2.18468,2.18468 0 0 0 -1.33,0.4 l 0.4,0.6 a 1.78919,1.78919 0 0 1 0.46,-0.23 1.17937,1.17937 0 0 1 0.41,-0.07 c 0.37994,0 0.58,0.15 0.58,0.46 a 0.44731,0.44731 0 0 1 -0.22,0.43 1.54282,1.54282 0 0 1 -0.7,0.12 h -0.31 v 0.66 h 0.31 a 1.76407,1.76407 0 0 1 0.75,0.12 0.43316,0.43316 0 0 1 0.23,0.41 0.54963,0.54963 0 0 1 -0.2,0.47 1.084,1.084 0 0 1 -0.62994,0.15 2.23991,2.23991 0 0 1 -0.57,-0.08 2.6715,2.6715 0 0 1 -0.52,-0.2 v 0.74 a 2.923,2.923 0 0 0 1.18,0.22 1.948,1.948 0 0 0 1.22,-0.33 1.077,1.077 0 0 0 0.43,-0.92 0.8359,0.8359 0 0 0 -0.26006,-0.64 z"
       inkscape:connector-curvature="0"
       style="fill:#ffffff;fill-opacity:1" />
    <path
       id="path841"
       d="m 0.2721307,3.6007191 c 0.06,-0.05 0.16000003,-0.14 0.30000003,-0.28 l -0.02,0.42 v 2.69 H 1.3921307 v -4 H 0.70213073 l -1.29000003,1.03 0.4,0.51 z"
       inkscape:connector-curvature="0"
       style="fill:#ffffff;fill-opacity:1" />
  </g>
</svg>
